<?xml version="1.0" encoding="UTF-8"?> <svg xmlns="http://www.w3.org/2000/svg" xmlns:xlink="http://www.w3.org/1999/xlink" width="144px" height="51px" viewBox="0 0 144 51" version="1.1"><title>Royal-Canin-Logo</title><g id="Home" stroke="none" stroke-width="1" fill="none" fill-rule="evenodd"><g id="Home-" transform="translate(-433.000000, -3346.000000)" fill="#E2001A" fill-rule="nonzero"><g id="Brands" transform="translate(93.000000, 3287.797070)"><g id="Group-51" transform="translate(317.000000, 42.000000)"><g id="Royal-Canin-Logo" transform="translate(23.000000, 17.000000)"><path d="M63.2258065,46.0645161 L59.3548387,46.0645161 L59.3548387,46.0645161 C59.2258065,46.0645161 59.1612903,45.9354839 59.1612903,45.8709677 L59.1612903,34.1935484 C59.2258065,34 59.2258065,33.7419355 59.1612903,33.5483871 C58.9677419,32.4516129 57.9354839,31.7419355 56.8387097,31.8709677 C55.7419355,32.0645161 55.0322581,33.0967742 55.1612903,34.1935484 L55.1612903,48.7741935 C55.1612903,49.3548387 55.6129032,49.8709677 56.2580645,49.9354839 L63.2258065,49.9354839 C63.2903226,49.9354839 63.3548387,49.9354839 63.4193548,49.9354839 C64.4516129,49.8709677 65.2258065,48.9677419 65.1612903,47.9354839 C65.1612903,46.7096774 64.3225806,46 63.2258065,46.0645161 Z M49.2258065,32.8387097 L38.9032258,46.7741935 C38.6451613,47.0967742 38.516129,47.483871 38.516129,47.9354839 C38.516129,48.516129 38.7741935,49.1612903 39.3548387,49.483871 C40.2580645,50.0645161 41.3548387,49.8709677 42,49.0967742 L44,46.3870968 L48.8387097,46.3870968 L48.8387097,47.9354839 C48.9032258,49.0322581 49.8064516,49.8709677 50.8387097,49.8064516 L50.8387097,49.8064516 C51.9354839,49.8064516 52.7096774,48.9032258 52.7096774,47.9354839 L52.7096774,34.1290323 C52.7096774,33.5483871 52.4516129,32.9677419 52.0645161,32.6451613 C51.2258065,31.8709677 49.9354839,31.9354839 49.2258065,32.8387097 Z M48.7741935,42.4516129 L46.9677419,42.4516129 C46.9032258,42.4516129 46.8387097,42.3870968 46.8387097,42.3225806 L46.8387097,42.3225806 L48.7741935,39.6774194 C48.7741935,39.6129032 48.7741935,42.4516129 48.7741935,42.4516129 Z M43.5483871,34.1935484 C43.5483871,33.1612903 42.7096774,32.3225806 41.7419355,32.3225806 C41.2258065,32.3225806 40.7096774,32.516129 40.3870968,32.8387097 L36,37.4193548 C35.9354839,37.483871 35.8709677,37.483871 35.8064516,37.483871 C35.7419355,37.483871 35.6774194,37.483871 35.6774194,37.4193548 L31.2903226,32.8387097 C30.9677419,32.516129 30.4516129,32.2580645 29.9354839,32.2580645 C28.9032258,32.2580645 28.1290323,33.0967742 28.1290323,34.0645161 C28.1290323,34.516129 28.3225806,35.0322581 28.5806452,35.3548387 L33.9354839,41.483871 L34,47.9354839 C34,48.9677419 34.8387097,49.8064516 35.8709677,49.8064516 C36.9032258,49.8064516 37.7419355,48.9677419 37.7419355,47.9354839 L37.8709677,41.5483871 L43.0967742,35.4193548 C43.4193548,35.0322581 43.5483871,34.5806452 43.5483871,34.1935484 Z M20.9032258,32.2580645 C16.0645161,32.2580645 12.1290323,36.1935484 12.1290323,41.0322581 C12.1290323,45.8709677 16.0645161,49.8064516 20.9032258,49.8064516 C25.7419355,49.8064516 29.6774194,45.8064516 29.6774194,40.9677419 C29.6774194,36.2580645 25.7419355,32.3225806 20.9032258,32.2580645 Z M20.9032258,45.6774194 C18.2580645,45.6774194 16.1935484,43.6129032 16.1935484,40.9677419 C16.1935484,38.3225806 18.2580645,36.2580645 20.9032258,36.2580645 C23.5483871,36.2580645 25.6129032,38.3225806 25.6129032,40.9677419 C25.6129032,43.6129032 23.5483871,45.6774194 20.9032258,45.6774194 Z M113.483871,31.8709677 C112.516129,31.9354839 111.741935,32.7096774 111.741935,33.6129032 L111.741935,41.8064516 C111.741935,41.8709677 111.677419,41.9354839 111.612903,41.9354839 C111.548387,41.9354839 111.548387,41.9354839 111.548387,41.8709677 L106.774194,33.4193548 C106.064516,32.1290323 104.387097,31.7419355 103.16129,32.516129 C102.451613,32.9677419 101.935484,33.8064516 101.870968,34.6451613 L101.870968,48.0645161 C101.935484,49.1612903 102.903226,49.9354839 103.870968,49.8709677 C104.83871,49.8064516 105.612903,49.0322581 105.677419,48.0645161 L105.677419,39.8709677 C105.677419,39.8064516 105.741935,39.7419355 105.806452,39.7419355 C105.870968,39.7419355 105.870968,39.7419355 105.870968,39.8064516 L110.774194,48.4516129 C111.419355,49.6774194 112.967742,50.0645161 114.193548,49.4193548 C115.032258,48.9677419 115.483871,48.1290323 115.483871,47.2903226 L115.483871,33.6774194 C115.419355,32.6451613 114.580645,31.8064516 113.483871,31.8709677 Z M9.03225806,42.6451613 C10.5806452,41.6774194 11.6129032,40 11.5483871,38.1935484 C11.5483871,38.1935484 11.5483871,38.1935484 11.5483871,38.1290323 C11.6129032,34.9677419 9.03225806,32.3225806 5.87096774,32.2580645 C4.32258065,32.1290323 2.70967742,32.6451613 1.61290323,33.7419355 C0.387096774,34.9677419 0,36.516129 0,38.1935484 L0.258064516,47.9354839 C0.258064516,48.9677419 1.09677419,49.8064516 2.12903226,49.8064516 C3.16129032,49.8064516 4,48.9677419 4,47.9354839 L4.06451613,43.2903226 L4.06451613,43.2903226 C4.06451613,43.1612903 4.12903226,43.0967742 4.25806452,43.0967742 C4.25806452,43.0967742 4.32258065,43.0967742 4.38709677,43.0967742 L8.96774194,49.3548387 C9.29032258,49.6774194 9.67741935,49.8064516 10.1935484,49.8064516 C11.2258065,49.8064516 12,48.9677419 12.0645161,48 C12.0645161,47.7419355 12,47.483871 11.8709677,47.1612903 L9.03225806,42.6451613 Z M5.74193548,39.9354839 C5.61290323,39.9354839 5.5483871,39.9354839 5.41935484,39.9354839 C4.32258065,39.8709677 3.61290323,38.9032258 3.67741935,37.9354839 C3.74193548,36.8387097 4.70967742,36.1290323 5.67741935,36.1935484 C5.80645161,36.1935484 5.87096774,36.1935484 6,36.1935484 C7.09677419,36.2580645 7.80645161,37.2258065 7.74193548,38.1935484 C7.67741935,39.2258065 6.70967742,40.1935484 5.74193548,39.9354839 Z M83.7419355,43.9354839 C83.483871,43.9354839 83.1612903,44 82.8387097,44.1290323 L81.2903226,45.1612903 C80.5806452,45.6129032 79.6774194,45.8709677 78.7741935,45.8709677 C76.0645161,45.7419355 74.0645161,43.4193548 74.1935484,40.8387097 C74.3225806,38.3225806 76.2580645,36.3870968 78.7741935,36.2580645 C79.6774194,36.2580645 80.516129,36.516129 81.2903226,36.9677419 L82.7741935,38 C83.0322581,38.1290323 83.2903226,38.1935484 83.6774194,38.1935484 C84.7096774,38.1935484 85.5483871,37.3548387 85.5483871,36.3225806 L85.5483871,36.3225806 C85.5483871,35.9354839 85.4193548,35.4193548 85.0967742,35.0967742 C83.6129032,33.3548387 81.4193548,32.3225806 79.0322581,32.3225806 C74.1935484,32.3225806 70.2580645,36.2580645 70.2580645,41.0967742 L70.2580645,41.0967742 C70.2580645,45.7419355 73.8709677,49.6129032 78.516129,49.8709677 C81.0322581,49.8709677 83.3548387,48.8387097 85.0967742,47.0322581 C85.3548387,46.7096774 85.5483871,46.3225806 85.483871,45.8064516 C85.6774194,44.7741935 84.7741935,43.9354839 83.7419355,43.9354839 Z M119.612903,31.8064516 C118.451613,31.8064516 117.612903,32.7741935 117.612903,33.8064516 L117.612903,47.9354839 C117.612903,49.0967742 118.580645,49.9354839 119.612903,49.9354839 C120.774194,49.9354839 121.612903,48.9677419 121.612903,47.9354839 L121.612903,33.8064516 C121.612903,32.7096774 120.774194,31.8064516 119.612903,31.8064516 Z M90.2580645,32.7741935 C89.8709677,32.3870968 89.2903226,32.1290323 88.7096774,32.1290323 C87.5483871,32.1290323 86.7096774,32.6451613 86.7096774,33.8064516 L86.7096774,47.9354839 L86.7096774,47.9354839 C86.7096774,49.0322581 87.6129032,49.8064516 88.6451613,49.8064516 C89.6774194,49.8064516 90.5806452,48.9677419 90.6451613,47.9354839 L90.6451613,46.3870968 L95.483871,46.3870968 L97.483871,49.0967742 C97.8064516,49.5483871 98.4516129,49.8064516 99.0322581,49.8064516 C100.129032,49.8064516 100.903226,48.9032258 100.903226,47.9354839 C100.903226,47.5483871 100.774194,47.0967742 100.516129,46.7741935 L90.2580645,32.7741935 Z M92.5806452,42.3225806 C92.5806452,42.3870968 92.516129,42.4516129 92.4516129,42.4516129 L90.6451613,42.4516129 L90.6451613,39.5483871 L92.5806452,42.2580645 C92.6451613,42.2580645 92.6451613,42.2580645 92.5806452,42.3225806 Z M135.419355,31.8709677 C134.451613,31.9354839 133.677419,32.7096774 133.677419,33.6129032 L133.677419,41.8064516 C133.677419,41.8709677 133.612903,41.9354839 133.548387,41.9354839 C133.483871,41.9354839 133.483871,41.9354839 133.419355,41.8709677 L128.709677,33.4193548 C128,32.1290323 126.322581,31.7419355 125.096774,32.516129 C124.387097,32.9677419 123.870968,33.8064516 123.806452,34.6451613 L123.806452,48.0645161 C123.806452,49.1612903 124.709677,50 125.741935,50 C126.774194,50 127.677419,49.0967742 127.677419,48.0645161 L127.677419,39.8709677 C127.677419,39.8064516 127.741935,39.7419355 127.806452,39.7419355 C127.870968,39.7419355 127.870968,39.7419355 127.870968,39.8064516 L132.774194,48.4516129 C133.419355,49.6774194 134.967742,50.0645161 136.193548,49.4193548 C137.032258,48.9677419 137.483871,48.1290323 137.483871,47.2903226 L137.483871,33.6774194 C137.354839,32.6451613 136.451613,31.8064516 135.419355,31.8709677 Z M142.387097,33.483871 C142.387097,33.4193548 142.387097,33.4193548 142.387097,33.3548387 C142.387097,32.8387097 142,32.7096774 141.548387,32.7096774 L140.967742,32.7096774 C140.774194,32.7096774 140.709677,32.8387097 140.709677,32.9032258 L140.709677,34.6451613 C140.709677,34.8387097 140.774194,34.9032258 140.967742,34.9032258 C141.16129,34.9032258 141.225806,34.7741935 141.225806,34.6451613 L141.225806,34 L141.354839,34 L141.677419,34.6451613 C141.741935,34.7741935 141.806452,34.9032258 142,34.9032258 C142.193548,34.9032258 142.258065,34.8387097 142.258065,34.7096774 C142.258065,34.6451613 142.258065,34.6451613 142.258065,34.5806452 L141.870968,34 C142.129032,34.0645161 142.387097,33.7419355 142.387097,33.483871 Z M141.612903,33.6129032 L141.225806,33.6129032 L141.225806,33.0967742 L141.612903,33.0967742 C141.806452,33.0967742 141.935484,33.1612903 141.935484,33.3548387 C141.935484,33.5483871 141.806452,33.6129032 141.612903,33.6129032 Z M141.548387,31.7419355 L141.548387,31.7419355 C140.387097,31.7419355 139.483871,32.7096774 139.483871,33.8064516 C139.483871,34.9032258 140.451613,35.8709677 141.548387,35.8709677 C142.645161,35.8709677 143.612903,34.9032258 143.612903,33.8064516 C143.548387,32.7096774 142.645161,31.7419355 141.548387,31.7419355 Z M141.548387,35.3548387 L141.548387,35.3548387 C140.645161,35.3548387 140,34.7096774 140,33.8064516 C140,32.9032258 140.645161,32.2580645 141.548387,32.2580645 C142.451613,32.2580645 143.096774,32.9032258 143.096774,33.8064516 C143.096774,34.6451613 142.387097,35.3548387 141.548387,35.3548387 Z" id="Shape"></path><path d="M85.6129032,22.8387097 C81.483871,19.8064516 75.2903226,18 68.9032258,18 C62.516129,18 56.2580645,19.8064516 52.1935484,22.8387097 C51.8064516,23.0967742 51.6129032,23.5483871 51.6129032,24.0645161 C51.6129032,24.9677419 52.2580645,25.6129032 53.1612903,25.6129032 L53.1612903,25.6129032 C53.483871,25.6129032 53.8064516,25.483871 54.1290323,25.2903226 C56.9032258,23.2258065 62.2580645,21.0322581 69.0322581,21.0322581 C75.8064516,21.0322581 81.0967742,23.2258065 83.8709677,25.2903226 L83.9354839,25.3548387 C84.5806452,25.8064516 85.6129032,25.6774194 86.0645161,24.9677419 C86.4516129,24.2580645 86.3225806,23.2903226 85.6129032,22.8387097 Z M68.9032258,21.6774194 C62.9677419,21.6774194 57.3548387,23.4193548 53.8709677,26.3225806 C53.8709677,26.3225806 53.8709677,26.3225806 53.8064516,26.3225806 C53.4193548,26.7096774 53.3548387,27.3548387 53.6774194,27.8064516 C53.8709677,28.0645161 54.1290323,28.1935484 54.516129,28.1935484 C54.7741935,28.1935484 54.9677419,28.1290323 55.1612903,27.9354839 C58.2580645,25.3548387 63.4193548,23.7419355 68.8387097,23.7419355 C74.2580645,23.7419355 79.3548387,25.2903226 82.516129,27.9354839 C82.9677419,28.3225806 83.6774194,28.2580645 84,27.8064516 C84.3870968,27.3548387 84.3225806,26.6451613 83.8709677,26.3225806 C80.3870968,23.483871 74.7741935,21.6774194 68.9032258,21.6774194 Z M49.6774194,10.516129 C50.1290323,8.64516129 49.0322581,6.77419355 47.0967742,6.19354839 C46.8387097,6.12903226 46.516129,6.06451613 46.1935484,6.06451613 C44.2580645,6.06451613 42.7096774,7.61290323 42.7096774,9.5483871 C42.7096774,11.483871 44.2580645,13.0322581 46.1935484,13.0322581 C47.9354839,13.1612903 49.2903226,12.0645161 49.6774194,10.516129 Z M68.9032258,15.9354839 C70.8387097,15.9354839 72.3870968,14.3870968 72.3870968,12.4516129 C72.3870968,10.516129 70.8387097,8.96774194 68.9032258,8.96774194 C66.9677419,8.96774194 65.4193548,10.516129 65.4193548,12.4516129 C65.4193548,14.3870968 66.9032258,15.9354839 68.9032258,15.9354839 Z M68.9032258,7.03225806 C70.8387097,7.03225806 72.3870968,5.48387097 72.3870968,3.5483871 C72.3870968,1.61290323 70.8387097,0 68.9032258,0 C66.9677419,0 65.4193548,1.5483871 65.4193548,3.48387097 C65.3548387,5.48387097 66.9032258,7.03225806 68.9032258,7.03225806 Z M58.5806452,10.1935484 C56.7096774,10.7096774 55.6129032,12.7096774 56.1290323,14.5806452 C56.516129,16.0645161 57.9354839,17.0967742 59.483871,17.1612903 L59.5483871,17.1612903 C59.8064516,17.1612903 60.1290323,17.0967742 60.4516129,17.0322581 C62.3225806,16.516129 63.4193548,14.5806452 62.9677419,12.7096774 C62.5806452,11.1612903 61.1612903,10.0645161 59.5483871,10.0645161 C59.1612903,10.0645161 58.9032258,10.1290323 58.5806452,10.1935484 Z M54.1935484,18.1290323 C54.6451613,16.2580645 53.5483871,14.2580645 51.6129032,13.8064516 C51.3548387,13.7419355 51.0322581,13.6774194 50.7096774,13.6774194 L50.7096774,13.6774194 C50.1290323,13.6774194 49.483871,13.8709677 48.9032258,14.1290323 C48.0645161,14.5806452 47.483871,15.4193548 47.2903226,16.2580645 C47.0322581,17.2258065 47.1612903,18.1290323 47.6774194,18.9677419 C48.2580645,20.0645161 49.4193548,20.6451613 50.7096774,20.7096774 C51.2903226,20.7096774 52,20.5806452 52.516129,20.2580645 C53.3548387,19.8064516 54,19.0322581 54.1935484,18.1290323 Z M77.3548387,16.9677419 C77.6774194,17.0322581 77.9354839,17.0967742 78.3225806,17.0967742 C80.2580645,17.0967742 81.8064516,15.483871 81.8064516,13.6129032 C81.8064516,12 80.7096774,10.6451613 79.2258065,10.2580645 C78.9032258,10.1935484 78.6451613,10.1290323 78.2580645,10.1290323 C76.3225806,10.1290323 74.7741935,11.7419355 74.7741935,13.6774194 C74.7096774,15.1612903 75.8064516,16.5806452 77.3548387,16.9677419 Z M79.6774194,8.4516129 C79.9354839,8.51612903 80.2580645,8.58064516 80.6451613,8.58064516 C82.5806452,8.58064516 84.1290323,6.96774194 84.1290323,5.09677419 C84.1290323,3.48387097 83.0322581,2.12903226 81.5483871,1.74193548 C81.2258065,1.67741935 80.9677419,1.61290323 80.5806452,1.61290323 C78.6451613,1.61290323 77.0967742,3.22580645 77.0967742,5.16129032 C77.0967742,6.58064516 78.1935484,8 79.6774194,8.4516129 Z M88.8387097,14.1935484 C88.3225806,13.8709677 87.6774194,13.7419355 87.0967742,13.7419355 C85.1612903,13.7419355 83.6129032,15.2903226 83.6129032,17.2258065 C83.6129032,17.483871 83.6774194,17.8064516 83.7419355,18.1290323 C83.9354839,19.0322581 84.5806452,19.8064516 85.3548387,20.2580645 C87.0322581,21.2903226 89.2258065,20.6451613 90.1935484,18.9677419 C90.6451613,18.1290323 90.7741935,17.2258065 90.5806452,16.2580645 C90.1935484,15.483871 89.6129032,14.7096774 88.8387097,14.1935484 Z M94.9677419,8.77419355 C94.7741935,7.87096774 94.1290323,7.09677419 93.3548387,6.64516129 C91.6774194,5.61290323 89.483871,6.25806452 88.516129,7.93548387 C88.0645161,8.77419355 87.9354839,9.67741935 88.1290323,10.6451613 C88.3225806,11.5483871 88.9677419,12.3225806 89.7419355,12.7741935 C91.4193548,13.8064516 93.6129032,13.2258065 94.5806452,11.5483871 C95.0967742,10.6451613 95.2258065,9.5483871 94.9677419,8.77419355 Z M57.2258065,8.58064516 L57.2258065,8.58064516 C57.5483871,8.58064516 57.8709677,8.51612903 58.1935484,8.4516129 C60.0645161,7.93548387 61.1612903,5.93548387 60.7096774,4.12903226 C60.3225806,2.58064516 58.9032258,1.5483871 57.3548387,1.5483871 C57.0322581,1.5483871 56.7741935,1.61290323 56.3870968,1.67741935 C54.516129,2.19354839 53.4193548,4.19354839 53.8709677,6 C54.2580645,7.48387097 55.6129032,8.58064516 57.2258065,8.58064516 Z" id="Shape"></path></g></g></g></g></g></svg> 