<?xml version="1.0" encoding="UTF-8"?>
<svg width="109px" height="69px" viewBox="0 0 109 69" version="1.1" xmlns="http://www.w3.org/2000/svg" xmlns:xlink="http://www.w3.org/1999/xlink">
    <title>logo</title>
    <g id="Home" stroke="none" stroke-width="1" fill="none" fill-rule="evenodd">
        <g id="Home-Mix" transform="translate(-666.000000, -7801.000000)" fill="#042740">
            <g id="Group-42" transform="translate(0.000000, 7330.000000)">
                <g id="Group-40" transform="translate(0.000000, 451.000000)">
                    <g id="logo" transform="translate(666.000000, 20.000000)">
                        <path d="M3.072,62.976 C4.096,62.976 4.72,62.76 4.944,62.328 C5.072,62.088 5.148,61.876 5.172,61.692 C5.196,61.508 5.208,61.232 5.208,60.864 L5.208,60.864 L5.208,58.152 L8.208,58.152 C9.632,58.152 11.008,57.64 12.336,56.616 C12.992,56.12 13.528,55.452 13.944,54.612 C14.36,53.772 14.568,52.832 14.568,51.792 C14.568,50.752 14.36,49.808 13.944,48.96 C13.528,48.112 12.992,47.44 12.336,46.944 C11.008,45.92 9.64,45.408 8.232,45.408 L8.232,45.408 L3.096,45.408 C2.072,45.408 1.448,45.624 1.224,46.056 C1.096,46.296 1.02,46.508 0.996,46.692 C0.972,46.876 0.96,47.152 0.96,47.52 L0.96,47.52 L0.96,60.84 C0.96,61.4 1.008,61.816 1.104,62.088 C1.296,62.68 1.952,62.976 3.072,62.976 Z M8.232,53.904 L5.208,53.904 L5.208,49.656 L8.208,49.656 C8.704,49.656 9.184,49.836 9.648,50.196 C10.112,50.556 10.344,51.088 10.344,51.792 C10.344,52.496 10.112,53.024 9.648,53.376 C9.184,53.728 8.712,53.904 8.232,53.904 L8.232,53.904 Z M21.864,63.312 C25.272,63.312 26.976,62.6 26.976,61.176 C26.976,60.872 26.872,60.504 26.664,60.072 C26.296,59.352 25.856,58.992 25.344,58.992 C25.088,58.992 24.768,59.08 24.384,59.256 L24.384,59.256 L24.12,59.352 C23.592,59.544 22.864,59.64 21.936,59.64 C21.408,59.64 20.88,59.488 20.352,59.184 C19.824,58.88 19.56,58.504 19.56,58.056 L19.56,58.056 L25.248,58.056 C25.84,58.056 26.38,57.82 26.868,57.348 C27.356,56.876 27.6,56.152 27.6,55.176 C27.6,54.184 27.328,53.272 26.784,52.44 C25.744,50.872 24.112,50.088 21.888,50.088 C19.936,50.088 18.308,50.692 17.004,51.9 C15.7,53.108 15.048,54.72 15.048,56.736 C15.048,58.336 15.552,59.784 16.56,61.08 C17.072,61.752 17.788,62.292 18.708,62.7 C19.628,63.108 20.68,63.312 21.864,63.312 Z M22.536,55.872 L19.512,55.872 C19.512,55.392 19.768,54.94 20.28,54.516 C20.792,54.092 21.308,53.88 21.828,53.88 C22.348,53.88 22.748,53.992 23.028,54.216 C23.308,54.44 23.448,54.736 23.448,55.104 C23.448,55.616 23.144,55.872 22.536,55.872 L22.536,55.872 Z M35.616,63 C35.968,63 36.236,62.988 36.42,62.964 C36.604,62.94 36.816,62.872 37.056,62.76 C37.504,62.536 37.728,61.92 37.728,60.912 C37.728,60.048 37.544,59.512 37.176,59.304 C36.952,59.176 36.74,59.1 36.54,59.076 C36.34,59.052 36.052,59.04 35.676,59.04 C35.3,59.04 35.044,58.944 34.908,58.752 C34.772,58.56 34.704,58.248 34.704,57.816 L34.704,57.816 L34.704,54.504 L36.264,54.6 C36.632,54.6 36.908,54.588 37.092,54.564 C37.276,54.54 37.488,54.472 37.728,54.36 C38.16,54.136 38.376,53.52 38.376,52.512 C38.376,51.488 38.168,50.872 37.752,50.664 C37.512,50.536 37.3,50.46 37.116,50.436 C36.932,50.412 36.66,50.4 36.3,50.4 C35.94,50.4 35.408,50.432 34.704,50.496 L34.704,50.496 L34.704,48.144 C34.704,47.584 34.664,47.176 34.584,46.92 C34.376,46.328 33.728,46.032 32.64,46.032 C31.616,46.032 31,46.232 30.792,46.632 C30.664,46.84 30.588,47.032 30.564,47.208 C30.54,47.384 30.528,47.656 30.528,48.024 L30.528,48.024 L30.528,50.496 L29.736,50.4 C29.352,50.4 29.032,50.504 28.776,50.712 C28.632,50.84 28.52,51.052 28.44,51.348 C28.36,51.644 28.32,52.12 28.32,52.776 C28.32,53.432 28.436,53.896 28.668,54.168 C28.9,54.44 29.192,54.576 29.544,54.576 C29.896,54.576 30.224,54.552 30.528,54.504 L30.528,54.504 L30.528,58.056 C30.528,59.848 30.96,61.12 31.824,61.872 C32.688,62.624 33.952,63 35.616,63 Z M56.592,62.976 C57.056,62.976 57.44,62.928 57.744,62.832 C58.352,62.64 58.656,61.992 58.656,60.888 L58.656,60.888 L58.656,47.568 C58.656,47.2 58.644,46.92 58.62,46.728 C58.596,46.536 58.52,46.32 58.392,46.08 C58.168,45.648 57.548,45.432 56.532,45.432 C55.516,45.432 54.872,45.648 54.6,46.08 C53.688,47.232 51.872,49.608 49.152,53.208 L49.152,53.208 L43.704,46.056 L43.56,45.912 C43.464,45.8 43.26,45.692 42.948,45.588 C42.636,45.484 42.264,45.432 41.832,45.432 C40.824,45.432 40.2,45.64 39.96,46.056 C39.832,46.296 39.756,46.508 39.732,46.692 C39.708,46.876 39.696,47.152 39.696,47.52 L39.696,47.52 L39.696,60.84 C39.696,61.224 39.708,61.512 39.732,61.704 C39.756,61.896 39.832,62.104 39.96,62.328 C40.2,62.76 40.808,62.976 41.784,62.976 C42.792,62.976 43.416,62.76 43.656,62.328 C43.784,62.104 43.86,61.9 43.884,61.716 C43.908,61.532 43.92,61.256 43.92,60.888 L43.92,60.888 L43.92,52.8 C44,52.896 44.512,53.596 45.456,54.9 C46.4,56.204 47.032,57.056 47.352,57.456 L47.352,57.456 L47.544,57.72 C47.672,57.88 47.884,58.044 48.18,58.212 C48.476,58.38 48.804,58.464 49.164,58.464 C49.524,58.464 49.86,58.372 50.172,58.188 C50.484,58.004 50.68,57.86 50.76,57.756 C50.84,57.652 50.984,57.464 51.192,57.192 C51.4,56.92 51.888,56.244 52.656,55.164 C53.424,54.084 54.008,53.296 54.408,52.8 L54.408,52.8 L54.408,60.84 C54.408,61.4 54.448,61.816 54.528,62.088 C54.608,62.296 54.72,62.456 54.864,62.568 C55.008,62.68 55.216,62.776 55.488,62.856 C55.76,62.936 56.128,62.976 56.592,62.976 Z M71.076,62.952 C71.948,62.952 72.496,62.744 72.72,62.328 C72.832,62.088 72.9,61.876 72.924,61.692 C72.948,61.508 72.96,61.232 72.96,60.864 L72.96,60.864 L72.96,52.464 C72.96,52.096 72.948,51.82 72.924,51.636 C72.9,51.452 72.828,51.24 72.708,51 C72.588,50.76 72.376,50.592 72.072,50.496 C71.768,50.4 71.304,50.352 70.68,50.352 C69.512,50.352 68.88,50.8 68.784,51.696 C68.672,51.536 68.528,51.372 68.352,51.204 C68.176,51.036 67.864,50.856 67.416,50.664 C66.968,50.472 66.472,50.376 65.928,50.376 C64.504,50.376 63.196,51.004 62.004,52.26 C60.812,53.516 60.216,54.98 60.216,56.652 C60.216,58.324 60.808,59.792 61.992,61.056 C63.176,62.32 64.46,62.952 65.844,62.952 C67.228,62.952 68.216,62.528 68.808,61.68 C68.856,62.096 69.028,62.412 69.324,62.628 C69.62,62.844 70.204,62.952 71.076,62.952 Z M66.552,58.752 C65.96,58.752 65.456,58.54 65.04,58.116 C64.624,57.692 64.416,57.216 64.416,56.688 C64.416,56.16 64.612,55.672 65.004,55.224 C65.396,54.776 65.908,54.552 66.54,54.552 C67.172,54.552 67.676,54.776 68.052,55.224 C68.428,55.672 68.616,56.156 68.616,56.676 C68.616,57.196 68.42,57.672 68.028,58.104 C67.636,58.536 67.144,58.752 66.552,58.752 Z M85.392,62.976 C86.416,62.976 87.04,62.76 87.264,62.328 C87.376,62.104 87.444,61.9 87.468,61.716 C87.492,61.532 87.504,61.256 87.504,60.888 L87.504,60.888 L87.504,56.664 C87.504,54.904 86.972,53.412 85.908,52.188 C84.844,50.964 83.512,50.352 81.912,50.352 C81.256,50.352 80.656,50.536 80.112,50.904 C79.904,51.032 79.688,51.2 79.464,51.408 C79.24,51.616 79.096,51.776 79.032,51.888 C79.032,51.504 78.952,51.176 78.792,50.904 C78.568,50.536 77.968,50.352 76.992,50.352 C75.984,50.352 75.368,50.552 75.144,50.952 C75.016,51.176 74.94,51.38 74.916,51.564 C74.892,51.748 74.88,52.016 74.88,52.368 L74.88,52.368 L74.88,60.864 C74.88,61.232 74.892,61.508 74.916,61.692 C74.94,61.876 75.008,62.088 75.12,62.328 C75.344,62.76 75.96,62.976 76.968,62.976 C77.992,62.976 78.608,62.76 78.816,62.328 C78.944,62.104 79.02,61.9 79.044,61.716 C79.068,61.532 79.08,61.256 79.08,60.888 L79.08,60.888 L79.08,56.64 C79.08,56.016 79.276,55.512 79.668,55.128 C80.06,54.744 80.572,54.552 81.204,54.552 C81.836,54.552 82.34,54.736 82.716,55.104 C83.092,55.472 83.28,55.984 83.28,56.64 L83.28,56.64 L83.28,60.864 C83.28,61.408 83.328,61.816 83.424,62.088 C83.6,62.68 84.256,62.976 85.392,62.976 Z M91.524,48.648 C92.028,48.648 92.432,48.6 92.736,48.504 C93.04,48.408 93.248,48.248 93.36,48.024 C93.488,47.784 93.564,47.572 93.588,47.388 C93.612,47.204 93.624,46.928 93.624,46.56 C93.624,46.192 93.612,45.916 93.588,45.732 C93.564,45.548 93.488,45.336 93.36,45.096 C93.152,44.664 92.544,44.448 91.536,44.448 C90.512,44.448 89.888,44.664 89.664,45.096 C89.552,45.32 89.484,45.524 89.46,45.708 C89.436,45.892 89.424,46.168 89.424,46.536 C89.424,46.904 89.436,47.18 89.46,47.364 C89.484,47.548 89.556,47.76 89.676,48 C89.796,48.24 90.008,48.408 90.312,48.504 C90.616,48.6 91.02,48.648 91.524,48.648 Z M91.512,63 C92.536,63 93.152,62.792 93.36,62.376 C93.488,62.136 93.564,61.924 93.588,61.74 C93.612,61.556 93.624,61.28 93.624,60.912 L93.624,60.912 L93.624,52.512 C93.624,52.208 93.616,51.976 93.6,51.816 C93.584,51.352 93.44,51.008 93.168,50.784 C92.848,50.512 92.304,50.376 91.536,50.376 C90.512,50.376 89.888,50.584 89.664,51 C89.552,51.24 89.484,51.452 89.46,51.636 C89.436,51.82 89.424,52.096 89.424,52.464 L89.424,52.464 L89.424,60.888 C89.424,61.272 89.436,61.552 89.46,61.728 C89.484,61.904 89.552,62.112 89.664,62.352 C89.888,62.784 90.504,63 91.512,63 Z M106.044,62.952 C106.916,62.952 107.464,62.744 107.688,62.328 C107.8,62.088 107.868,61.876 107.892,61.692 C107.916,61.508 107.928,61.232 107.928,60.864 L107.928,60.864 L107.928,52.464 C107.928,52.096 107.916,51.82 107.892,51.636 C107.868,51.452 107.796,51.24 107.676,51 C107.556,50.76 107.344,50.592 107.04,50.496 C106.736,50.4 106.272,50.352 105.648,50.352 C104.48,50.352 103.848,50.8 103.752,51.696 C103.64,51.536 103.496,51.372 103.32,51.204 C103.144,51.036 102.832,50.856 102.384,50.664 C101.936,50.472 101.44,50.376 100.896,50.376 C99.472,50.376 98.164,51.004 96.972,52.26 C95.78,53.516 95.184,54.98 95.184,56.652 C95.184,58.324 95.776,59.792 96.96,61.056 C98.144,62.32 99.428,62.952 100.812,62.952 C102.196,62.952 103.184,62.528 103.776,61.68 C103.824,62.096 103.996,62.412 104.292,62.628 C104.588,62.844 105.172,62.952 106.044,62.952 Z M101.52,58.752 C100.928,58.752 100.424,58.54 100.008,58.116 C99.592,57.692 99.384,57.216 99.384,56.688 C99.384,56.16 99.58,55.672 99.972,55.224 C100.364,54.776 100.876,54.552 101.508,54.552 C102.14,54.552 102.644,54.776 103.02,55.224 C103.396,55.672 103.584,56.156 103.584,56.676 C103.584,57.196 103.388,57.672 102.996,58.104 C102.604,58.536 102.112,58.752 101.52,58.752 Z" id="PetMania" fill-rule="nonzero"></path>
                        <g id="Group-2" transform="translate(35.000000, 0.000000)">
                            <path d="M17.1541867,1.02968 C18.8021867,-0.343226667 21.1980267,-0.343226667 22.84592,1.02968 L22.84592,1.02968 L38.4,13.99464 C39.41456,14.8383733 40,16.0883467 40,17.4092 L40,17.4092 L40,39.7718667 L28.5513852,39.7705782 C28.4770339,39.7044874 28.40463,39.6420855 28.3364775,39.5833427 L28.3364775,39.5833427 L28.2594786,39.5156771 C27.9013221,39.1855025 27.6458258,38.7585007 27.5268256,38.2860122 C27.1978338,36.160411 27.2211596,34.4500143 27.5944912,33.0593688 C27.7018017,32.6463744 27.8814758,32.2567057 28.1264739,31.9066998 C28.2501333,31.7433598 28.383132,31.5858765 28.5231314,31.4353761 C28.8381337,31.1180143 29.1029513,30.7563604 29.311784,30.3620326 C29.7971152,29.3213034 29.7049441,28.1033163 29.0667859,27.1489909 C29.0597852,27.137343 27.2514592,23.9407578 29.0971183,22.2001064 C29.3631425,21.950452 30.0281209,21.7194403 30.5461261,21.6214423 C31.6637915,21.4091211 32.4687826,21.164114 32.9354472,20.8911159 C32.9471149,20.8841152 32.9587814,20.8759497 32.9704478,20.8677812 L32.9704478,20.8677812 L33.0241445,20.828031 C33.2998492,20.6185203 34.5092151,19.6345465 34.65277,18.4481141 C34.7169233,17.8985998 34.5419353,17.3491153 34.1720979,16.9384505 C33.8687734,16.640941 33.4686216,16.4647762 33.0451142,16.4414415 C32.4897758,16.4017787 31.4701339,16.2501165 30.7864591,15.6691228 C30.5461529,15.3167873 29.2534696,13.5458004 27.5641588,13.4104662 C27.2316547,13.356802 26.8956562,13.3311228 26.5584929,13.3333333 C24.9976678,13.3333333 22.1532987,13.8373157 20.5899648,17.2020794 C20.468647,17.4003932 19.987975,18.2917599 19.4653107,20.6997491 C19.2973114,21.465079 19.1339893,22.0857653 18.9543241,22.6527516 C18.6498348,23.6315675 18.2205034,24.5672262 17.6756781,25.4364021 C16.6233009,27.0989227 15.3504789,28.6109159 13.890991,29.9304194 C12.8748419,30.8147674 11.9204867,31.767928 11.0350038,32.7817474 C11.0326712,32.7864126 10.9580049,32.8727448 10.897337,32.942746 C10.580005,33.3557404 10.2999973,33.795555 10.0619999,34.2587252 C9.98383917,34.4173911 9.82167883,34.5177248 9.64434629,34.5177248 C9.57201253,34.5177248 9.50084655,34.500226 9.43668129,34.4687257 C9.32584659,34.4138938 9.24184696,34.3170605 9.20218122,34.199228 C9.16251548,34.0825634 9.17184877,33.9542299 9.22668074,33.8433982 C9.4740055,33.3615614 9.76102289,32.9018856 10.0853436,32.4690598 C9.58484021,31.9370771 9.21733251,31.2942597 9.0120001,30.5930831 C8.68766746,29.3621936 8.7308246,28.0637162 9.13566546,26.8573771 C9.76346,24.953505 11.3243746,23.653836 13.20737,23.4648376 C13.7556896,23.4088378 15.4170215,23.2408386 15.2816903,21.8408448 C15.2373684,21.3694912 14.8756846,20.5808355 12.9623748,20.5808355 L12.9623748,20.5808355 L12.841042,20.5808355 C11.2942542,20.61115 9.53717621,21.3601728 8.14184163,22.5804895 C7.08017597,23.5114592 6.13985804,25.0747632 5.61486411,26.2251026 C3.92537405,29.9352129 4.94261325,34.8630715 7.93165591,37.4460488 C8.23030929,37.7330363 8.39480818,38.1308884 8.38664267,38.5450476 C8.35403478,38.9756783 8.36183806,39.3850233 8.40934409,39.7715624 L0,39.7718667 L0,17.40904 C0,16.08824 0.585493333,14.8382133 1.60005333,13.99448 L1.60005333,13.99448 Z M23.4085234,25.849298 L23.4668557,26.4349508 C23.4831897,26.5924579 23.5765226,26.7301247 23.716522,26.8036233 L23.716522,26.8036233 L24.9415277,27.433628 C25.1386767,27.5573053 25.3101853,27.7171241 25.4501846,27.9026221 C25.4968511,27.9656226 25.5435176,28.0356208 25.590184,28.105622 C25.8153478,28.5011146 26.1408632,28.8301184 26.535191,29.0576177 C26.6098573,29.285141 26.6051922,29.5324627 26.5235251,29.7576295 C26.5048585,29.7902975 26.453524,29.8719616 26.2271924,29.8952963 L26.2271924,29.8952963 L24.841206,30.0656282 C24.6918734,30.0772761 23.8425588,30.1729386 23.4388827,30.7632805 C23.2172163,31.1004438 23.169382,31.5216217 23.3105492,31.8996125 C23.3128818,31.9112784 23.3175499,31.9229472 23.322215,31.9346131 C23.3315334,31.9602983 24.3045253,34.4382947 23.6628727,36.4286304 C23.655872,36.4461292 23.6512069,36.4659635 23.6488743,36.4846301 C23.6041904,36.7174631 23.2995184,38.4164534 23.4781286,39.7716387 L16.721,39.771 L16.7212273,38.9159063 C16.7212273,37.8163301 17.6016064,36.6688281 18.5249827,35.9648545 L18.6882074,35.845328 C19.979696,34.8677964 20.717035,33.3230694 20.6645356,31.7037358 C20.5852101,30.2943341 20.7135466,27.0369705 23.4085234,25.849298 L23.4085234,25.849298 Z M25.828501,14.3110796 C26.0945222,14.2784116 26.8155093,14.2714109 26.9228407,14.2784116 C26.4515199,14.9226327 26.0198559,16.1008674 26.6171866,18.0795253 C26.8785187,18.9427278 27.1701953,20.5083912 26.1972034,21.2970469 C25.8168531,21.5747131 25.3385406,21.6808767 24.8765352,21.5887115 C24.320032,21.519899 23.8148695,21.2282225 23.4765414,20.7813893 C22.8395181,19.8317201 23.2875161,18.5623925 23.8661802,17.3327275 C23.9455117,17.1600691 24.0318439,16.9617374 24.1205116,16.7494043 C24.4961729,15.8674157 25.0095189,14.6634061 25.7655006,14.3437446 C25.7876675,14.3344143 25.8086697,14.3239132 25.828501,14.3110796 Z M33.3218542,17.335096 C33.4956774,17.26393 33.6963447,17.3035957 33.8305111,17.4365944 C33.9635098,17.5707549 34.0031755,17.7714191 33.9320095,17.9452513 C33.8596728,18.1202483 33.6893469,18.2334156 33.5003485,18.2334156 C33.3766891,18.2334305 33.2576889,18.1844404 33.1701889,18.0969315 C33.0826889,18.0094226 33.0336899,17.8904223 33.0336899,17.766757 C33.0336899,17.5777615 33.1468542,17.4074297 33.3218542,17.335096 Z M28.4243388,15.701755 C28.5981621,15.630589 28.7988293,15.6702548 28.9329958,15.8032534 C29.0659944,15.9374139 29.1056602,16.1380782 29.0344942,16.3119103 C28.9621574,16.4869073 28.7918316,16.6000746 28.6028332,16.6000746 C28.4791738,16.6000895 28.3601736,16.5510905 28.2726736,16.4635905 C28.1851736,16.3760816 28.1361746,16.2570814 28.1361746,16.133416 C28.1361746,15.9444206 28.2493389,15.7740887 28.4243388,15.701755 Z" id="Combined-Shape"></path>
                        </g>
                    </g>
                </g>
            </g>
        </g>
    </g>
</svg>