<?xml version="1.0" encoding="UTF-8"?>
<svg width="135px" height="37px" viewBox="0 0 135 37" version="1.1" xmlns="http://www.w3.org/2000/svg" xmlns:xlink="http://www.w3.org/1999/xlink">
    <title>logo</title>
    <g id="Home" stroke="none" stroke-width="1" fill="none" fill-rule="evenodd">
        <g id="Home-Mix" transform="translate(-97.000000, -20.000000)" fill="#042740">
            <g id="logo" transform="translate(97.000000, 20.000000)">
                <path d="M39.6921536,34.8138958 C40.6137536,34.8138958 41.1753536,34.6194958 41.3769536,34.2306958 C41.4921536,34.0146958 41.5605536,33.8238958 41.5821536,33.6582958 C41.6037536,33.4926958 41.6145536,33.2442958 41.6145536,32.9130958 L41.6145536,32.9130958 L41.6145536,30.4722958 L44.3145536,30.4722958 C45.5961536,30.4722958 46.8345536,30.0114958 48.0297536,29.0898958 C48.6201536,28.6434958 49.1025536,28.0422958 49.4769536,27.2862958 C49.8513536,26.5302958 50.0385536,25.6842958 50.0385536,24.7482958 C50.0385536,23.8122958 49.8513536,22.9626958 49.4769536,22.1994958 C49.1025536,21.4362958 48.6201536,20.8314958 48.0297536,20.3850958 C46.8345536,19.4634958 45.6033536,19.0026958 44.3361536,19.0026958 L44.3361536,19.0026958 L39.7137536,19.0026958 C38.7921536,19.0026958 38.2305536,19.1970958 38.0289536,19.5858958 C37.9137536,19.8018958 37.8453536,19.9926958 37.8237536,20.1582958 C37.8021536,20.3238958 37.7913536,20.5722958 37.7913536,20.9034958 L37.7913536,20.9034958 L37.7913536,32.8914958 C37.7913536,33.3954958 37.8345536,33.7698958 37.9209536,34.0146958 C38.0937536,34.5474958 38.6841536,34.8138958 39.6921536,34.8138958 Z M44.3361536,26.6490958 L41.6145536,26.6490958 L41.6145536,22.8258958 L44.3145536,22.8258958 C44.7609536,22.8258958 45.1929536,22.9878958 45.6105536,23.3118958 C46.0281536,23.6358958 46.2369536,24.1146958 46.2369536,24.7482958 C46.2369536,25.3818958 46.0281536,25.8570958 45.6105536,26.1738958 C45.1929536,26.4906958 44.7681536,26.6490958 44.3361536,26.6490958 L44.3361536,26.6490958 Z M56.6049536,35.1162958 C59.6721536,35.1162958 61.2057536,34.4754958 61.2057536,33.1938958 C61.2057536,32.9202958 61.1121536,32.5890958 60.9249536,32.2002958 C60.5937536,31.5522958 60.1977536,31.2282958 59.7369536,31.2282958 C59.5065536,31.2282958 59.2185536,31.3074958 58.8729536,31.4658958 L58.8729536,31.4658958 L58.6353536,31.5522958 C58.1601536,31.7250958 57.5049536,31.8114958 56.6697536,31.8114958 C56.1945536,31.8114958 55.7193536,31.6746958 55.2441536,31.4010958 C54.7689536,31.1274958 54.5313536,30.7890958 54.5313536,30.3858958 L54.5313536,30.3858958 L59.6505536,30.3858958 C60.1833536,30.3858958 60.6693536,30.1734958 61.1085536,29.7486958 C61.5477536,29.3238958 61.7673536,28.6722958 61.7673536,27.7938958 C61.7673536,26.9010958 61.5225536,26.0802958 61.0329536,25.3314958 C60.0969536,23.9202958 58.6281536,23.2146958 56.6265536,23.2146958 C54.8697536,23.2146958 53.4045536,23.7582958 52.2309536,24.8454958 C51.0573536,25.9326958 50.4705536,27.3834958 50.4705536,29.1978958 C50.4705536,30.6378958 50.9241536,31.9410958 51.8313536,33.1074958 C52.2921536,33.7122958 52.9365536,34.1982958 53.7645536,34.5654958 C54.5925536,34.9326958 55.5393536,35.1162958 56.6049536,35.1162958 Z M57.2097536,28.4202958 L54.4881536,28.4202958 C54.4881536,27.9882958 54.7185536,27.5814958 55.1793536,27.1998958 C55.6401536,26.8182958 56.1045536,26.6274958 56.5725536,26.6274958 C57.0405536,26.6274958 57.4005536,26.7282958 57.6525536,26.9298958 C57.9045536,27.1314958 58.0305536,27.3978958 58.0305536,27.7290958 C58.0305536,28.1898958 57.7569536,28.4202958 57.2097536,28.4202958 L57.2097536,28.4202958 Z M68.9817536,34.8354958 C69.2985536,34.8354958 69.5397536,34.8246958 69.7053536,34.8030958 C69.8709536,34.7814958 70.0617536,34.7202958 70.2777536,34.6194958 C70.6809536,34.4178958 70.8825536,33.8634958 70.8825536,32.9562958 C70.8825536,32.1786958 70.7169536,31.6962958 70.3857536,31.5090958 C70.1841536,31.3938958 69.9933536,31.3254958 69.8133536,31.3038958 C69.6333536,31.2822958 69.3741536,31.2714958 69.0357536,31.2714958 C68.6973536,31.2714958 68.4669536,31.1850958 68.3445536,31.0122958 C68.2221536,30.8394958 68.1609536,30.5586958 68.1609536,30.1698958 L68.1609536,30.1698958 L68.1609536,27.1890958 L69.5649536,27.2754958 C69.8961536,27.2754958 70.1445536,27.2646958 70.3101536,27.2430958 C70.4757536,27.2214958 70.6665536,27.1602958 70.8825536,27.0594958 C71.2713536,26.8578958 71.4657536,26.3034958 71.4657536,25.3962958 C71.4657536,24.4746958 71.2785536,23.9202958 70.9041536,23.7330958 C70.6881536,23.6178958 70.4973536,23.5494958 70.3317536,23.5278958 C70.1661536,23.5062958 69.9213536,23.4954958 69.5973536,23.4954958 C69.2733536,23.4954958 68.7945536,23.5242958 68.1609536,23.5818958 L68.1609536,23.5818958 L68.1609536,21.4650958 C68.1609536,20.9610958 68.1249536,20.5938958 68.0529536,20.3634958 C67.8657536,19.8306958 67.2825536,19.5642958 66.3033536,19.5642958 C65.3817536,19.5642958 64.8273536,19.7442958 64.6401536,20.1042958 C64.5249536,20.2914958 64.4565536,20.4642958 64.4349536,20.6226958 C64.4133536,20.7810958 64.4025536,21.0258958 64.4025536,21.3570958 L64.4025536,21.3570958 L64.4025536,23.5818958 L63.6897536,23.4954958 C63.3441536,23.4954958 63.0561536,23.5890958 62.8257536,23.7762958 C62.6961536,23.8914958 62.5953536,24.0822958 62.5233536,24.3486958 C62.4513536,24.6150958 62.4153536,25.0434958 62.4153536,25.6338958 C62.4153536,26.2242958 62.5197536,26.6418958 62.7285536,26.8866958 C62.9373536,27.1314958 63.2001536,27.2538958 63.5169536,27.2538958 C63.8337536,27.2538958 64.1289536,27.2322958 64.4025536,27.1890958 L64.4025536,27.1890958 L64.4025536,30.3858958 C64.4025536,31.9986958 64.7913536,33.1434958 65.5689536,33.8202958 C66.3465536,34.4970958 67.4841536,34.8354958 68.9817536,34.8354958 Z M87.8601536,34.8138958 C88.2777536,34.8138958 88.6233536,34.7706958 88.8969536,34.6842958 C89.4441536,34.5114958 89.7177536,33.9282958 89.7177536,32.9346958 L89.7177536,32.9346958 L89.7177536,20.9466958 C89.7177536,20.6154958 89.7069536,20.3634958 89.6853536,20.1906958 C89.6637536,20.0178958 89.5953536,19.8234958 89.4801536,19.6074958 C89.2785536,19.2186958 88.7205536,19.0242958 87.8061536,19.0242958 C86.8917536,19.0242958 86.3121536,19.2186958 86.0673536,19.6074958 C85.2465536,20.6442958 83.6121536,22.7826958 81.1641536,26.0226958 L81.1641536,26.0226958 L76.2609536,19.5858958 L76.1313536,19.4562958 C76.0449536,19.3554958 75.8613536,19.2582958 75.5805536,19.1646958 C75.2997536,19.0710958 74.9649536,19.0242958 74.5761536,19.0242958 C73.6689536,19.0242958 73.1073536,19.2114958 72.8913536,19.5858958 C72.7761536,19.8018958 72.7077536,19.9926958 72.6861536,20.1582958 C72.6645536,20.3238958 72.6537536,20.5722958 72.6537536,20.9034958 L72.6537536,20.9034958 L72.6537536,32.8914958 C72.6537536,33.2370958 72.6645536,33.4962958 72.6861536,33.6690958 C72.7077536,33.8418958 72.7761536,34.0290958 72.8913536,34.2306958 C73.1073536,34.6194958 73.6545536,34.8138958 74.5329536,34.8138958 C75.4401536,34.8138958 76.0017536,34.6194958 76.2177536,34.2306958 C76.3329536,34.0290958 76.4013536,33.8454958 76.4229536,33.6798958 C76.4445536,33.5142958 76.4553536,33.2658958 76.4553536,32.9346958 L76.4553536,32.9346958 L76.4553536,25.6554958 C76.5273536,25.7418958 76.9881536,26.3718958 77.8377536,27.5454958 C78.6873536,28.7190958 79.2561536,29.4858958 79.5441536,29.8458958 L79.5441536,29.8458958 L79.7169536,30.0834958 C79.8321536,30.2274958 80.0229536,30.3750958 80.2893536,30.5262958 C80.5557536,30.6774958 80.8509536,30.7530958 81.1749536,30.7530958 C81.4989536,30.7530958 81.8013536,30.6702958 82.0821536,30.5046958 C82.3629536,30.3390958 82.5393536,30.2094958 82.6113536,30.1158958 C82.6833536,30.0222958 82.8129536,29.8530958 83.0001536,29.6082958 L83.044125,29.5502734 C83.2513822,29.2747264 83.675925,28.6856673 84.3177536,27.7830958 C85.0089536,26.8110958 85.5345536,26.1018958 85.8945536,25.6554958 L85.8945536,25.6554958 L85.8945536,32.8914958 C85.8945536,33.3954958 85.9305536,33.7698958 86.0025536,34.0146958 C86.0745536,34.2018958 86.1753536,34.3458958 86.3049536,34.4466958 C86.4345536,34.5474958 86.6217536,34.6338958 86.8665536,34.7058958 C87.1113536,34.7778958 87.4425536,34.8138958 87.8601536,34.8138958 Z M100.895754,34.7922958 C101.680554,34.7922958 102.173754,34.6050958 102.375354,34.2306958 C102.476154,34.0146958 102.537354,33.8238958 102.558954,33.6582958 C102.580554,33.4926958 102.591354,33.2442958 102.591354,32.9130958 L102.591354,32.9130958 L102.591354,25.3530958 C102.591354,25.0218958 102.580554,24.7734958 102.558954,24.6078958 C102.537354,24.4422958 102.472554,24.2514958 102.364554,24.0354958 C102.256554,23.8194958 102.065754,23.6682958 101.792154,23.5818958 C101.518554,23.4954958 101.100954,23.4522958 100.539354,23.4522958 C99.4881536,23.4522958 98.9193536,23.8554958 98.8329536,24.6618958 C98.7321536,24.5178958 98.6025536,24.3702958 98.4441536,24.2190958 C98.2857536,24.0678958 98.0049536,23.9058958 97.6017536,23.7330958 C97.1985536,23.5602958 96.7521536,23.4738958 96.2625536,23.4738958 C94.9809536,23.4738958 93.8037536,24.0390958 92.7309536,25.1694958 C91.6581536,26.2998958 91.1217536,27.6174958 91.1217536,29.1222958 C91.1217536,30.6270958 91.6545536,31.9482958 92.7201536,33.0858958 C93.7857536,34.2234958 94.9413536,34.7922958 96.1869536,34.7922958 C97.4325536,34.7922958 98.3217536,34.4106958 98.8545536,33.6474958 C98.8977536,34.0218958 99.0525536,34.3062958 99.3189536,34.5006958 C99.5853536,34.6950958 100.110954,34.7922958 100.895754,34.7922958 Z M96.8241536,31.0122958 C96.2913536,31.0122958 95.8377536,30.8214958 95.4633536,30.4398958 C95.0889536,30.0582958 94.9017536,29.6298958 94.9017536,29.1546958 C94.9017536,28.6794958 95.0781536,28.2402958 95.4309536,27.8370958 C95.7837536,27.4338958 96.2445536,27.2322958 96.8133536,27.2322958 C97.3821536,27.2322958 97.8357536,27.4338958 98.1741536,27.8370958 C98.5125536,28.2402958 98.6817536,28.6758958 98.6817536,29.1438958 C98.6817536,29.6118958 98.5053536,30.0402958 98.1525536,30.4290958 C97.7997536,30.8178958 97.3569536,31.0122958 96.8241536,31.0122958 Z M113.780154,34.8138958 C114.701754,34.8138958 115.263354,34.6194958 115.464954,34.2306958 C115.565754,34.0290958 115.626954,33.8454958 115.648554,33.6798958 C115.670154,33.5142958 115.680954,33.2658958 115.680954,32.9346958 L115.680954,32.9346958 L115.680954,29.1330958 C115.680954,27.5490958 115.202154,26.2062958 114.244554,25.1046958 C113.286954,24.0030958 112.088154,23.4522958 110.648154,23.4522958 C110.057754,23.4522958 109.517754,23.6178958 109.028154,23.9490958 C108.840954,24.0642958 108.646554,24.2154958 108.444954,24.4026958 C108.243354,24.5898958 108.113754,24.7338958 108.056154,24.8346958 C108.056154,24.4890958 107.984154,24.1938958 107.840154,23.9490958 C107.638554,23.6178958 107.098554,23.4522958 106.220154,23.4522958 C105.312954,23.4522958 104.758554,23.6322958 104.556954,23.9922958 C104.441754,24.1938958 104.373354,24.3774958 104.351754,24.5430958 C104.330154,24.7086958 104.319354,24.9498958 104.319354,25.2666958 L104.319354,25.2666958 L104.319354,32.9130958 C104.319354,33.2442958 104.330154,33.4926958 104.351754,33.6582958 C104.373354,33.8238958 104.434554,34.0146958 104.535354,34.2306958 C104.736954,34.6194958 105.291354,34.8138958 106.198554,34.8138958 C107.120154,34.8138958 107.674554,34.6194958 107.861754,34.2306958 C107.976954,34.0290958 108.045354,33.8454958 108.066954,33.6798958 C108.088554,33.5142958 108.099354,33.2658958 108.099354,32.9346958 L108.099354,32.9346958 L108.099354,29.1114958 C108.099354,28.5498958 108.275754,28.0962958 108.628554,27.7506958 C108.981354,27.4050958 109.442154,27.2322958 110.010954,27.2322958 C110.579754,27.2322958 111.033354,27.3978958 111.371754,27.7290958 C111.710154,28.0602958 111.879354,28.5210958 111.879354,29.1114958 L111.879354,29.1114958 L111.879354,32.9130958 C111.879354,33.4026958 111.922554,33.7698958 112.008954,34.0146958 C112.167354,34.5474958 112.757754,34.8138958 113.780154,34.8138958 Z M119.298954,21.9186958 C119.752554,21.9186958 120.116154,21.8754958 120.389754,21.7890958 C120.663354,21.7026958 120.850554,21.5586958 120.951354,21.3570958 C121.066554,21.1410958 121.134954,20.9502958 121.156554,20.7846958 C121.178154,20.6190958 121.188954,20.3706958 121.188954,20.0394958 C121.188954,19.7082958 121.178154,19.4598958 121.156554,19.2942958 C121.134954,19.1286958 121.066554,18.9378958 120.951354,18.7218958 C120.764154,18.3330958 120.216954,18.1386958 119.309754,18.1386958 C118.388154,18.1386958 117.826554,18.3330958 117.624954,18.7218958 C117.524154,18.9234958 117.462954,19.1070958 117.441354,19.2726958 C117.419754,19.4382958 117.408954,19.6866958 117.408954,20.0178958 C117.408954,20.3490958 117.419754,20.5974958 117.441354,20.7630958 C117.462954,20.9286958 117.527754,21.1194958 117.635754,21.3354958 C117.743754,21.5514958 117.934554,21.7026958 118.208154,21.7890958 C118.481754,21.8754958 118.845354,21.9186958 119.298954,21.9186958 Z M119.288154,34.8354958 C120.209754,34.8354958 120.764154,34.6482958 120.951354,34.2738958 C121.066554,34.0578958 121.134954,33.8670958 121.156554,33.7014958 C121.178154,33.5358958 121.188954,33.2874958 121.188954,32.9562958 L121.188954,32.9562958 L121.188954,25.3962958 C121.188954,25.1226958 121.181754,24.9138958 121.167354,24.7698958 C121.152954,24.3522958 121.023354,24.0426958 120.778554,23.8410958 C120.490554,23.5962958 120.000954,23.4738958 119.309754,23.4738958 C118.388154,23.4738958 117.826554,23.6610958 117.624954,24.0354958 C117.524154,24.2514958 117.462954,24.4422958 117.441354,24.6078958 C117.419754,24.7734958 117.408954,25.0218958 117.408954,25.3530958 L117.408954,25.3530958 L117.408954,32.9346958 C117.408954,33.2802958 117.419754,33.5322958 117.441354,33.6906958 C117.462954,33.8490958 117.524154,34.0362958 117.624954,34.2522958 C117.826554,34.6410958 118.380954,34.8354958 119.288154,34.8354958 Z M132.366954,34.7922958 C133.151754,34.7922958 133.644954,34.6050958 133.846554,34.2306958 C133.947354,34.0146958 134.008554,33.8238958 134.030154,33.6582958 C134.051754,33.4926958 134.062554,33.2442958 134.062554,32.9130958 L134.062554,32.9130958 L134.062554,25.3530958 C134.062554,25.0218958 134.051754,24.7734958 134.030154,24.6078958 C134.008554,24.4422958 133.943754,24.2514958 133.835754,24.0354958 C133.727754,23.8194958 133.536954,23.6682958 133.263354,23.5818958 C132.989754,23.4954958 132.572154,23.4522958 132.010554,23.4522958 C130.959354,23.4522958 130.390554,23.8554958 130.304154,24.6618958 C130.203354,24.5178958 130.073754,24.3702958 129.915354,24.2190958 C129.756954,24.0678958 129.476154,23.9058958 129.072954,23.7330958 C128.669754,23.5602958 128.223354,23.4738958 127.733754,23.4738958 C126.452154,23.4738958 125.274954,24.0390958 124.202154,25.1694958 C123.129354,26.2998958 122.592954,27.6174958 122.592954,29.1222958 C122.592954,30.6270958 123.125754,31.9482958 124.191354,33.0858958 C125.256954,34.2234958 126.412554,34.7922958 127.658154,34.7922958 C128.903754,34.7922958 129.792954,34.4106958 130.325754,33.6474958 C130.368954,34.0218958 130.523754,34.3062958 130.790154,34.5006958 C131.056554,34.6950958 131.582154,34.7922958 132.366954,34.7922958 Z M128.295354,31.0122958 C127.762554,31.0122958 127.308954,30.8214958 126.934554,30.4398958 C126.560154,30.0582958 126.372954,29.6298958 126.372954,29.1546958 C126.372954,28.6794958 126.549354,28.2402958 126.902154,27.8370958 C127.254954,27.4338958 127.715754,27.2322958 128.284554,27.2322958 C128.853354,27.2322958 129.306954,27.4338958 129.645354,27.8370958 C129.983754,28.2402958 130.152954,28.6758958 130.152954,29.1438958 C130.152954,29.6118958 129.976554,30.0402958 129.623754,30.4290958 C129.270954,30.8178958 128.828154,31.0122958 128.295354,31.0122958 Z" id="PetMania" fill-rule="nonzero"></path>
                <path d="M35.0426944,15.6712661 C34.4094201,14.272925 33.275161,12.3725883 31.9945261,11.2409107 C30.3114028,9.75750593 28.1919263,8.84700128 26.3261125,8.81015123 L26.1797548,8.81015123 C23.8718235,8.81015123 23.4355422,9.76883323 23.3820789,10.341806 C23.2188355,12.0436245 25.2228182,12.2478427 25.8842292,12.3159154 C28.1555935,12.54566 30.0384478,14.1255248 30.7957254,16.4398527 C31.284065,17.9062666 31.3361233,19.4846828 30.9448968,20.9809397 C30.6972145,21.833283 30.2539081,22.6146855 29.6501756,23.2613583 C30.0413876,23.7874971 30.3876025,24.3462744 30.6859382,24.9319904 C30.7520793,25.0667164 30.7633376,25.2227173 30.7154907,25.3645337 C30.6676439,25.5077696 30.5663193,25.6254792 30.4326249,25.6921324 C30.3552255,25.7304237 30.2693815,25.7516951 30.1821288,25.7516951 C29.9682213,25.7516951 29.7726153,25.6297306 29.6783339,25.4368578 C29.3912493,24.8738327 29.0534898,24.3391985 28.670708,23.8371666 C28.5975273,23.7520738 28.507461,23.6471293 28.5046473,23.6414584 C27.4365329,22.4090695 26.2853413,21.250417 25.0596108,20.1754123 C23.2991026,18.5714371 21.7637601,16.7334731 20.4943295,14.7125297 C19.8371336,13.6559681 19.3192523,12.5185907 18.9519619,11.3287518 C18.7352407,10.6395289 18.5382333,9.88502886 18.335584,8.95470143 C17.7051198,6.02757366 17.1253089,4.94403718 16.9789692,4.70296892 C15.0931967,0.612795717 11.6621745,0.000159727901 9.77942831,0.000159727901 C9.37272487,-0.00252738373 8.96742645,0.0286880514 8.56634314,0.0939217032 C6.5286108,0.258432637 4.96931072,2.41122665 4.67944129,2.83952217 C3.8547581,3.5457723 2.62481431,3.73013143 1.95493709,3.77834508 C1.44408096,3.80671054 0.961397571,4.02085466 0.595512176,4.38250425 C0.149395637,4.88170434 -0.0616838122,5.5496522 0.0157011757,6.21763637 C0.207092082,7.81166393 1.96902347,9.10504597 2.04500341,9.15895958 C2.05907609,9.16888912 2.07314877,9.17881504 2.08722289,9.18732504 C2.65013736,9.51917873 3.6211585,9.81700695 4.96934314,10.0751025 C5.5941872,10.1942279 6.3963178,10.4750434 6.71720966,10.7785208 C8.94353726,12.8944393 6.76224282,16.7801765 6.7537982,16.7943356 C5.98401943,17.954404 5.87283797,19.434977 6.45826901,20.7000771 C6.71017368,21.1794181 7.02961008,21.6190409 7.40958184,22.0048227 C7.57845618,22.1877696 7.7388859,22.3792046 7.88805013,22.5777592 C8.18357932,23.0032229 8.4003113,23.4769002 8.5297546,23.9789321 C8.98008617,25.669387 9.00822289,27.7485281 8.6113763,30.3323878 C8.46783221,30.9067402 8.1596397,31.4257993 7.7276132,31.8271562 L7.63473322,31.9094099 C6.96204593,32.4937099 5.94598983,33.375823 6.10922602,34.5756096 C6.26684207,35.7044915 7.70790309,36.3057825 8.68735624,36.3057825 C12.0029134,36.3057825 13.1683319,33.3729912 13.2047187,33.2736957 C13.916819,31.651278 13.3567074,28.49735 13.2891577,28.1426457 C13.286344,28.1199548 13.2807166,28.0958443 13.272272,28.074573 C12.4982782,25.6551407 13.6719503,22.642913 13.6831906,22.6116903 C13.6888179,22.5975094 13.6944489,22.5833248 13.6972625,22.5691439 C13.8675455,22.109662 13.8098454,21.5976824 13.5424602,21.18783 C13.0555256,20.4702163 12.0310393,20.3539299 11.8509067,20.3397708 L10.1790598,20.1327171 C9.90604714,20.1043517 9.84412475,20.0050816 9.82160817,19.9653707 C9.72309724,19.6916602 9.7174699,19.3910183 9.80753621,19.1144433 C10.2831944,18.8378974 10.6758475,18.4379637 10.9474515,17.9572068 C11.003743,17.872114 11.0600344,17.7870249 11.1163258,17.7104422 C11.2852002,17.4849526 11.4920825,17.2906785 11.7298936,17.1403375 L13.2075576,16.3745102 C13.3764319,16.285166 13.4890148,16.1178197 13.5087177,15.9263555 L13.5790811,15.2144418 C16.8298986,16.6581647 16.9847046,20.6177835 16.8890182,22.3310382 C16.8256907,24.299484 17.7151064,26.1772387 19.2729654,27.3655164 C20.4550678,28.2022484 21.6456364,29.6828214 21.6456364,31.0980808 L21.6456364,32.224131 L20.0891824,32.224131 C20.0652572,32.224131 20.0399269,32.2269665 20.0160053,32.2298019 C17.6264379,32.5503102 16.9396643,34.6548989 16.9115275,35.7242036 C16.9087139,35.8773654 16.9664103,36.0234404 17.0733659,36.1326399 C17.1789128,36.2418395 17.3224569,36.3042413 17.4744492,36.3057825 L28.63979,36.3057825 C28.7340787,36.3057825 28.8269586,36.2829663 28.909989,36.2375845 C30.9280508,35.1285617 31.8906075,33.1941704 31.6992346,30.6472687 C31.689385,30.1438208 31.8878119,29.6601958 32.2480627,29.3113366 C35.8535974,26.1714952 37.0806429,20.1812394 35.0429285,15.671375 L35.0426944,15.6712661 Z M1.40581034,5.95665094 C1.17783089,5.95665094 0.972375213,5.81908592 0.885118968,5.60636133 C0.799274963,5.39505266 0.847121792,5.15112716 1.00755151,4.98804303 C1.16938987,4.82637118 1.41144489,4.7781539 1.62111927,4.86466255 C1.8322131,4.95259075 1.9687176,5.15964442 1.9687176,5.38938538 C1.9687176,5.53971177 1.90961248,5.68436724 1.80406557,5.79074224 C1.69851866,5.89711724 1.55497457,5.95666909 1.40579233,5.95666909 L1.40581034,5.95665094 Z M7.31344146,3.9711779 C7.085462,3.9711779 6.88000633,3.83361288 6.79275008,3.6208883 C6.70690608,3.40957962 6.75475291,3.16565412 6.91518263,3.00256999 C7.07702098,2.84089815 7.31907601,2.79268086 7.52875038,2.87918952 C7.73984421,2.96711771 7.87634871,3.17417138 7.87634871,3.40391234 C7.87634871,3.55423873 7.8172436,3.69889421 7.71169668,3.80526921 C7.60614977,3.91163332 7.46260568,3.97119606 7.31342344,3.97119606 L7.31344146,3.9711779 Z M13.4970343,9.0539424 C13.0889258,9.5971084 12.4795732,9.95166753 11.8082909,10.0353153 C11.2509966,10.1473503 10.6740318,10.0182989 10.215234,9.68077071 C9.04156184,8.72208871 9.39339689,6.81888385 9.70862899,5.76958342 C10.4291595,3.36434665 9.90846452,1.93209622 9.33993352,1.14898744 C9.46940205,1.14047744 10.3390932,1.14898744 10.6599814,1.18869835 C10.6839031,1.20429881 10.7092369,1.21706381 10.7359758,1.22840563 C11.6478792,1.61698298 12.2671031,3.08056502 12.7202448,4.15270158 C12.8272003,4.41081162 12.9313386,4.65190166 13.0270323,4.86178353 C13.7250462,6.35655196 14.2654441,7.89953404 13.4970703,9.05397508 L13.4970343,9.0539424 Z" id="Fill-1" transform="translate(18.012812, 18.152891) scale(-1, 1) translate(-18.012812, -18.152891) "></path>
            </g>
        </g>
    </g>
</svg>